HIERARCHY
ROOT Hips
{
  OFFSET 13.6774 106.653 -34.4427
  CHANNELS 6 Xposition Yposition Zposition Zrotation Xrotation Yrotation
  JOINT ToSpine
  {
    OFFSET -2.69724 7.43032 -0.144315
    CHANNELS 3 Zrotation Xrotation Yrotation
    JOINT Spine
    {
      OFFSET -0.0310711 10.7595 1.96963
      CHANNELS 3 Zrotation Xrotation Yrotation
      JOINT Spine1
      {
        OFFSET 19.9056 3.91189 0.764692
        CHANNELS 3 Zrotation Xrotation Yrotation
        JOINT Neck
        {
          OFFSET 25.9749 7.03908 -0.130764
          CHANNELS 3 Zrotation Xrotation Yrotation
          JOINT Head
          {
            OFFSET 9.52751 0.295786 -0.907742
            CHANNELS 3 Zrotation Xrotation Yrotation
            End Site
            {
              OFFSET 16.4037 0.713936 2.7358
            }
          }
        }
        JOINT LeftShoulder
        {
          OFFSET 17.7449 4.33886 11.7777
          CHANNELS 3 Zrotation Xrotation Yrotation
          JOINT LeftArm
          {
            OFFSET 0.911315 1.27913 9.80584
            CHANNELS 3 Zrotation Xrotation Yrotation
            JOINT LeftForeArm
            {
              OFFSET 28.6126 1.18197 -3.53199
              CHANNELS 3 Zrotation Xrotation Yrotation
              JOINT LeftHand
              {
                OFFSET 27.5088 0.0218783 0.327423
                CHANNELS 3 Zrotation Xrotation Yrotation
                End Site
                {
                  OFFSET 18.6038 -0.000155887 0.382096
                }
              }
            }
          }
        }
        JOINT RightShoulder
        {
          OFFSET 17.1009 2.89543 -12.2328
          CHANNELS 3 Zrotation Xrotation Yrotation
          JOINT RightArm
          {
            OFFSET 1.4228 0.178766 -10.211
            CHANNELS 3 Zrotation Xrotation Yrotation
            JOINT RightForeArm
            {
              OFFSET 28.733 1.87905 2.64907
              CHANNELS 3 Zrotation Xrotation Yrotation
              JOINT RightHand
              {
                OFFSET 27.4588 0.290562 -0.101845
                CHANNELS 3 Zrotation Xrotation Yrotation
                End Site
                {
                  OFFSET 17.8396 -0.255518 -0.000602873
                }
              }
            }
          }
        }
      }
    }
  }
  JOINT LeftUpLeg
  {
    OFFSET -5.61296 -2.22332 -10.2353
    CHANNELS 3 Zrotation Xrotation Yrotation
    JOINT LeftLeg
    {
      OFFSET 2.56703 -44.7417 -7.93097
      CHANNELS 3 Zrotation Xrotation Yrotation
      JOINT LeftFoot
      {
        OFFSET 3.16933 -46.5642 -3.96578
        CHANNELS 3 Zrotation Xrotation Yrotation
        JOINT LeftToeBase
        {
          OFFSET 0.346054 -6.02161 12.8035
          CHANNELS 3 Zrotation Xrotation Yrotation
          End Site
          {
            OFFSET 0.134235 -1.35082 5.13018
          }
        }
      }
    }
  }
  JOINT RightUpLeg
  {
    OFFSET -5.7928 -1.72406 10.6446
    CHANNELS 3 Zrotation Xrotation Yrotation
    JOINT RightLeg
    {
      OFFSET -2.57161 -44.7178 -7.85259
      CHANNELS 3 Zrotation Xrotation Yrotation
      JOINT RightFoot
      {
        OFFSET -3.10148 -46.5936 -4.03391
        CHANNELS 3 Zrotation Xrotation Yrotation
        JOINT RightToeBase
        {
          OFFSET -0.0828122 -6.13587 12.8035
          CHANNELS 3 Zrotation Xrotation Yrotation
          End Site
          {
            OFFSET -0.131328 -1.35082 5.13018
          }
        }
      }
    }
  }
}
MOTION
Frames: 14
Frame Time: 0.03333333333333333
0.0000 93.1000 0.0000 -51.6609 -18.7887 177.2444 -70.9662 0.1430 87.9823 123.9052 68.9060 -39.5172 -7.4577 22.5417 2.1702 -163.6179 30.9574 -181.0488 -148.5529 70.8472 -174.8197 -0.4687 -14.9057 -31.9837 -69.4921 51.3876 -67.1057 20.0492 17.9943 -49.6047 0.1069 0.1351 -0.1691 -2.9924 6.2575 46.1423 -69.2459 -20.4734 82.1517 24.0058 -19.1292 55.0757 -0.0415 0.5655 -0.6449 -48.7042 4.3563 90.5831 -13.6544 72.9174 0.1554 -9.2270 5.8992 0.9128 0.7000 -4.8692 5.2627 -8.3307 0.8453 79.8131 5.5862 68.1016 -6.9986 -10.2356 -25.9536 1.4973 4.8729 -1.5999 -29.8192 
0.0000 93.1000 0.0000 -52.3606 -12.5820 174.4087 -70.9891 0.0324 87.9721 133.9100 68.9692 -48.2221 -9.5634 24.8845 0.2501 -167.9714 29.9031 -177.9114 -146.0469 69.1104 -178.9272 0.1763 -14.3322 -32.0484 -57.2552 57.2916 -75.0464 19.3733 21.9193 -42.7758 -0.3933 -0.4915 0.1848 -2.7683 7.1981 43.6685 -72.6408 -20.5502 88.9269 28.8705 -16.6703 63.5725 0.2256 -0.1939 -0.1762 -38.4742 4.8896 93.6507 -65.2034 83.9554 50.1032 -7.5960 6.7936 1.1971 3.4968 -11.0082 4.7097 -16.7636 5.0412 83.0974 5.1609 65.4737 -5.0817 -11.2263 -27.8508 1.0576 3.2859 -6.3338 -28.5317 
0.0000 93.1000 0.0000 -51.1861 -9.1780 171.8167 -70.9800 0.1010 88.0586 136.9943 70.0862 -51.7536 -10.7403 26.9030 1.9879 -166.4211 29.5284 -177.8481 -140.5848 68.1245 179.2450 -0.3759 -14.1591 -31.9402 -48.7395 61.4355 -80.0873 23.0783 26.5224 -43.8516 -0.5494 0.1982 0.0978 -2.5007 6.9609 40.0083 -75.4721 -24.8658 95.3617 34.2434 -11.4048 73.6878 -0.1053 0.2690 -0.4239 -24.8748 4.2577 93.5777 -139.5127 82.6403 126.3300 -6.2520 6.2020 0.4519 2.8273 -9.7092 7.0576 -27.4388 5.1248 83.9005 4.1538 58.7115 1.0063 -8.7802 -28.8198 1.3890 3.0159 -6.9836 -26.9436 
0.0000 93.1000 0.0000 -52.2769 -7.5990 171.2104 -70.9704 -0.0272 88.1071 137.6950 71.6720 -54.4709 -12.3235 28.1243 2.7558 -167.8923 29.8138 -178.5702 -140.0530 68.3697 175.3662 0.1646 -13.9656 -30.7774 -44.4564 65.2424 -78.9257 31.7472 29.0768 -51.4403 -0.0942 -0.5269 0.3593 -2.4807 7.1853 37.2547 -76.7229 -28.5947 99.2485 40.0521 -5.9558 83.0094 0.6246 -0.5307 0.2659 -15.3279 2.7020 92.7544 -134.3843 83.4355 124.9795 -4.7989 5.3514 0.8671 1.3308 -6.1170 8.9021 -39.0375 3.2495 85.1488 2.6604 49.2129 3.3757 -5.0939 -23.8363 0.6248 2.1555 -11.1122 -15.9063 
0.0000 93.1000 0.0000 -53.7309 -6.4191 169.7625 -70.9368 0.0417 88.1557 135.6326 73.6693 -51.7456 -11.0706 28.3566 3.0667 -167.1880 30.0090 -178.8985 -141.7995 68.2666 174.7930 -0.0964 -13.8969 -28.7898 -36.7939 68.8759 -80.8486 32.4038 24.2487 -56.4358 0.2030 -0.1515 0.0113 -2.2491 7.2950 35.7293 -76.7280 -30.9086 101.5484 41.5114 0.7550 90.7916 0.1332 -0.0568 -0.2556 -9.4043 0.9294 92.9601 -41.2402 83.0829 33.8610 -2.7927 8.0387 0.5298 0.7079 -5.5431 7.5099 -51.8619 1.9112 84.4790 1.6016 38.8354 7.0827 -2.5797 -7.4497 -0.1495 2.3406 -20.9691 0.0932 
0.0000 93.1000 0.0000 -52.3097 -4.3414 169.5921 -70.9127 0.0156 88.1874 132.8959 75.5579 -48.4286 -9.3256 28.8212 2.3263 -167.8830 29.5769 -179.1341 -143.3109 68.5621 174.9351 0.2512 -13.7377 -27.6949 -28.4157 70.4699 -85.9068 30.2188 19.0624 -59.8329 0.1835 -0.1800 0.1739 -2.0159 7.1842 34.1857 -77.7223 -33.4541 99.9149 42.2776 7.0493 97.3550 -0.1010 -0.2005 -0.2229 -6.4278 0.1918 93.3648 -10.2545 70.2447 1.8686 -5.8477 10.4128 1.3969 0.7598 -6.2533 7.3832 -59.6663 -0.9034 80.6421 0.7026 32.2266 16.5828 2.8134 11.9374 -1.9368 2.1610 -22.6746 3.4116 
0.0000 93.1000 0.0000 -53.4745 -2.4939 169.3112 -70.8898 -0.0005 88.1453 132.8095 76.7521 -46.6929 -8.6766 29.7669 1.5915 -167.7757 29.7699 -177.3458 -147.9415 69.3057 180.3706 0.3325 -13.9305 -27.9682 -24.7968 71.8572 -89.1618 28.3679 15.5320 -62.5654 -0.0323 -0.1500 0.4466 -2.0038 7.0368 33.3039 -78.7785 -34.1972 95.3648 40.1147 9.8534 101.1059 -0.4058 -0.2752 0.2453 -8.6457 -1.0634 96.5496 -5.8325 51.3451 -12.0638 -11.8880 11.9207 2.6014 0.8470 -6.1043 8.5333 -65.4269 -1.7145 79.5729 -1.0357 30.8699 29.3472 5.1203 20.0031 -2.8007 2.5803 -12.1418 -18.8540 
0.0000 93.1000 0.0000 -52.9890 -0.9858 170.7772 -70.8988 0.0422 88.0553 129.6731 78.1975 -40.5726 -7.1176 30.3340 -0.0938 -167.6063 28.9895 -176.9493 -150.5650 69.0602 -177.5551 0.6149 -12.5566 -28.1178 -30.7758 73.1037 -84.1466 27.8514 15.6368 -64.1582 -0.3553 -0.4041 0.0076 -2.0917 7.5418 33.8854 -82.3583 -32.2801 91.0715 37.0013 8.1715 100.2828 0.0328 -0.3800 -0.1285 -10.6374 -0.9623 99.4079 -3.9614 34.4653 -18.3252 -15.9187 12.9030 3.5674 2.4880 -8.8553 6.1360 -67.3917 2.0917 90.3853 2.5250 36.5299 10.2578 0.1907 17.3605 -1.7818 0.6625 -7.9484 -7.2187 
0.0000 93.1000 0.0000 -56.1522 0.0588 172.8381 -70.8971 0.0625 88.0186 132.6410 77.5850 -41.6887 -7.6610 29.9605 -0.0646 -167.1569 28.8559 -176.0603 -152.9893 68.5471 -173.9978 0.5491 -12.2222 -28.7264 -39.4519 73.1109 -76.9978 28.0659 15.6227 -63.8913 -0.1809 -0.3133 -0.0833 -2.0667 7.2239 35.0156 -85.6218 -29.3437 85.3502 32.5596 2.7373 94.0408 0.2928 -0.3205 0.0259 -13.3619 -1.9288 97.7486 -6.2729 26.3927 -10.8133 -17.9396 12.1225 3.7827 2.8421 -9.0661 4.7627 -68.4603 3.5925 91.3673 2.0846 46.9233 3.6921 -2.2745 16.1778 -1.0577 1.3987 -7.3739 -7.4495 
0.0000 93.1000 0.0000 -57.1486 -0.4429 174.4077 -70.9151 0.0709 87.9901 131.5816 75.4745 -40.0355 -7.1561 27.9715 1.0463 -164.0886 28.0022 -177.4459 -154.9760 68.0750 -170.8355 0.3678 -12.0320 -29.9751 -52.8335 70.9486 -68.2265 29.1209 16.1860 -62.9712 0.0163 -0.2119 0.2110 -2.1074 5.9930 38.9164 -89.4533 -24.4467 79.2838 28.7703 -1.9438 86.9632 0.1318 -0.2294 0.0664 -16.3604 -3.5105 103.7300 -5.8019 29.1510 -15.4113 -17.2657 12.1812 3.6160 2.0502 -7.4140 1.4472 -67.4826 2.5550 88.4800 3.9311 61.5054 -0.2451 -1.2953 14.8673 -1.0002 2.1711 -3.0450 -13.8019 
0.0000 93.1000 0.0000 -60.0318 0.2991 174.2070 -70.9949 0.1777 88.0118 131.6049 73.5994 -40.5942 -6.3682 27.3183 0.8782 -160.7676 26.9191 -178.7673 -154.4611 67.2565 -168.3481 -0.5540 -12.9267 -32.9366 -63.7509 66.3674 -61.2190 30.1717 16.9799 -62.2121 -0.2796 0.2951 -0.6512 -2.3884 5.9142 41.9833 -91.5698 -22.2922 76.3868 26.1546 -7.2684 75.7854 -0.0985 0.4256 -0.2993 -20.3649 -4.9957 107.6167 -4.6059 39.4343 -23.8775 -9.0394 4.7022 1.1551 -1.9390 -1.7851 10.8594 -62.3893 0.5322 85.6103 13.0770 77.4918 -16.0705 -4.7713 11.1911 0.1545 1.4423 -3.3354 -10.1723 
0.0000 93.1000 0.0000 -62.2867 1.6797 173.5805 -71.0001 0.1225 87.9630 124.5096 73.5816 -36.1819 -5.2371 25.2946 1.2819 -158.8945 23.8786 177.1920 -151.3952 63.9174 -171.2399 -0.4505 -12.7755 -34.1939 -70.9547 58.9422 -59.2174 32.3451 19.2416 -61.8759 -0.2671 0.2384 -0.1261 -2.4275 5.0818 44.3345 -93.4068 -22.4143 75.8771 24.9159 -14.2996 62.2911 -0.3761 0.3678 -0.1235 -21.8346 -5.9776 106.8369 -6.1448 52.2276 -16.7440 0.2822 -8.5378 -1.3067 -1.8346 0.5242 3.0322 -53.0430 -1.8728 88.2804 139.2812 84.0074 -144.0378 -9.2248 9.2637 1.1572 2.0215 -10.0844 -12.3247 
0.0000 93.1000 0.0000 -62.0564 0.4914 170.6351 -71.0168 -0.1011 88.0110 108.5422 71.8233 -25.3581 -3.3482 22.8461 0.5820 -160.6951 21.6510 177.8134 -154.1452 61.7106 -169.4091 0.5338 -13.7481 -34.8123 -74.8840 49.8728 -63.4597 35.3200 20.6589 -62.2141 -0.4644 -0.8382 0.4205 -2.3379 4.6624 45.1891 -91.6202 -23.8176 75.3505 20.0184 -18.9900 47.8595 0.6099 -0.7289 0.6919 -25.4030 -9.7470 104.8145 -7.5726 57.5525 -18.7426 2.1494 -15.2625 -1.3556 0.2975 -6.2638 12.8552 -38.3596 -3.5234 91.1090 166.5583 72.4826 -174.8988 -13.7055 10.2863 1.5812 1.0436 -13.8132 -7.0142 
0.0000 93.1000 0.0000 -61.0578 -0.7221 168.2753 -70.9558 -0.0138 88.1078 105.5683 71.3387 -25.0500 -3.8808 22.2009 0.5459 -160.6675 20.3019 177.3680 -153.7793 59.9071 -170.2066 -0.3329 -15.1133 -33.7214 -81.8238 41.1873 -63.3049 35.2516 20.2186 -63.2683 -0.0272 -0.7030 -1.0807 -2.4529 5.6926 46.9317 -84.5029 -24.7520 74.2647 14.9568 -23.0476 34.6811 0.4266 -0.5273 -0.0693 -32.6552 -13.9956 104.2522 -7.1102 57.4427 -20.6010 2.2088 -17.8565 -1.7022 2.5338 -10.9637 16.3368 -24.1759 -1.2076 95.1509 169.1254 68.1649 180.1203 -14.7744 6.8060 2.1097 2.5126 -16.0368 -6.7015 
